<?xml version="1.0" ?><!DOCTYPE svg  PUBLIC '-//W3C//DTD SVG 1.1//EN'  'http://www.w3.org/Graphics/SVG/1.1/DTD/svg11.dtd'><svg height="512px" style="enable-background:new 0 0 512 512;" version="1.1" viewBox="0 0 512 512" width="512px" xml:space="preserve" xmlns="http://www.w3.org/2000/svg" xmlns:xlink="http://www.w3.org/1999/xlink"><g id="_x32_0_x2C__medicine_x2C__Pill_x2C__capsule_x2C__drugs_x2C__tablet_x2C_"><g><path d="M225.439,115.725H70.577v16.295h142.661h0.107h12.094V115.725z     M70.577,106.896h154.862V90.603H70.577V106.896z M270.015,246.184H26.001v120.842h244.013V246.184z M270.015,375.854H26.001    v29.286h186.984c2.441,0,4.415,2.009,4.415,4.413c0,2.441-1.974,4.415-4.415,4.415H26.001v7.286    c0,9.476,3.911,18.125,10.156,24.368c6.245,6.245,14.859,10.121,24.333,10.121h175.034c9.474,0,18.123-3.876,24.368-10.121    c6.245-6.243,10.121-14.893,10.121-24.368C270.015,406.144,270.015,390.998,270.015,375.854z M26.001,237.355h244.013v-36.5l0,0    v-0.217v-0.213l0,0v-0.037v-0.18v-0.215l0,0v-0.035v-0.18v-0.216v-0.036l0,0v-0.18l-0.036-0.216v-0.034l0,0l0,0v-0.18    l-0.035-0.216v-0.035l0,0v-0.036v-0.145v-0.214v-0.037V198.2l-0.035-0.144v-0.251v-0.037l-0.037-0.106v-0.217l-0.035-0.071v-0.035    v-0.108v-0.215l-0.037-0.072v-0.036V196.8l-0.035-0.216v-0.072v-0.035l-0.071-0.359v-0.072l-0.072-0.357v-0.072l-0.037-0.359    l-0.035-0.07l-0.035-0.359l-0.036-0.072l-0.035-0.322l-0.037-0.072l-0.072-0.358v-0.071l-0.071-0.323l-0.035-0.108l-0.072-0.323    v-0.072l-0.107-0.323v-0.106l-0.108-0.432l-0.072-0.286l-0.035-0.109l-0.106-0.395l-0.109-0.322l-0.034-0.107l-0.072-0.287    l-0.037-0.107l-0.107-0.288l-0.034-0.106l-0.072-0.288l-0.037-0.142l-0.106-0.254l-0.037-0.142l-0.107-0.251l-0.035-0.145    l-0.108-0.25l-0.035-0.145l-0.179-0.395l-0.072-0.251l-0.072-0.144c-1.077-2.62-2.476-5.133-4.164-7.395l-0.071-0.07l-0.574-0.754    l-0.072-0.072l-0.035-0.107l-0.108-0.072l-0.251-0.322l-0.035-0.072l-0.108-0.107l-0.035-0.071l-0.107-0.108l-0.036-0.035    l-0.107-0.109l-0.037-0.07l-0.072-0.109l-0.034-0.034l-0.107-0.108l-0.037-0.035l-0.106-0.145l-0.037-0.035l-0.107-0.108    l-0.035-0.035l-0.108-0.107l-0.035-0.036l-0.108-0.145l-0.035-0.035l-0.107-0.108l-0.037-0.035l-0.106-0.144h-0.037l-0.107-0.145    h-0.036l-0.143-0.143v-0.036l-0.144-0.144l0,0l-0.072-0.072l-0.072-0.072l0,0l-0.144-0.143c-1.257-1.256-2.655-2.44-4.09-3.518    h-0.037c-5.669-4.162-12.705-6.604-20.241-6.604c-13.675,0-20.709-2.297-24.405-7.68c-3.015-4.451-3.194-10.122-2.657-17.838    H87.588c0.539,7.716,0.36,13.387-2.655,17.838c-3.697,5.383-10.732,7.68-24.442,7.68c-9.474,0-18.088,3.877-24.333,10.121    s-10.156,14.895-10.156,24.369v12.775h57.064c2.404,0,4.378,1.975,4.378,4.416c0,2.44-1.974,4.414-4.378,4.414H26.001V237.355z     M177.563,277.085c-7.537-7.573-18.016-12.237-29.536-12.237c-11.557,0-22.001,4.664-29.538,12.202    c-7.574,7.571-12.238,18.017-12.238,29.573c0,11.52,4.664,21.999,12.203,29.535c7.572,7.537,18.016,12.24,29.573,12.24    c11.52,0,21.964-4.703,29.536-12.24c7.539-7.571,12.24-18.016,12.24-29.535C189.802,295.066,185.101,284.621,177.563,277.085z     M148.027,256.018c13.924,0,26.593,5.672,35.746,14.822c9.188,9.188,14.822,21.82,14.822,35.783    c0,13.961-5.671,26.593-14.788,35.746c-9.188,9.15-21.82,14.822-35.781,14.822c-13.961,0-26.595-5.635-35.746-14.787    c-9.188-9.188-14.859-21.857-14.859-35.781c0-13.963,5.671-26.596,14.822-35.746C121.432,261.689,134.066,256.018,148.027,256.018    z M444.33,174.62c-3.517-3.554-8.146-5.312-12.776-5.312c-4.629,0-9.26,1.758-12.776,5.276c-3.517,3.517-5.276,8.146-5.276,12.776    c0,4.629,1.76,9.26,5.276,12.776s8.147,5.312,12.776,5.312c4.56,0,9.081-1.723,12.598-5.096l0.179-0.216    c3.519-3.517,5.312-8.147,5.312-12.776c0-4.521-1.721-9.081-5.096-12.563L444.33,174.62z M450.575,168.34l0.251,0.285    c5.061,5.205,7.608,11.989,7.608,18.736c0,6.891-2.619,13.781-7.859,19.021l-0.251,0.216c-5.239,5.096-11.986,7.644-18.771,7.644    c-6.854,0-13.781-2.619-19.021-7.859c-5.239-5.24-7.859-12.131-7.859-19.021c0-6.855,2.62-13.747,7.859-18.986    c5.312-5.275,12.168-7.895,19.021-7.895C438.445,160.48,445.336,163.1,450.575,168.34z M407.544,229.459    c0-4.629-1.794-9.26-5.312-12.775c-3.517-3.52-8.147-5.277-12.776-5.277c-4.595,0-9.224,1.758-12.741,5.277    c-3.554,3.516-5.313,8.146-5.313,12.775c-0.035,4.594,1.759,9.223,5.313,12.777c3.518,3.518,8.111,5.275,12.741,5.275    c4.629,0,9.26-1.758,12.776-5.275C405.75,238.719,407.544,234.088,407.544,229.459z M408.478,210.438    c5.239,5.24,7.896,12.131,7.896,19.021c0,6.856-2.657,13.745-7.896,18.986c-5.24,5.275-12.131,7.895-19.021,7.895    c-6.856,0-13.71-2.619-18.987-7.859c-5.239-5.239-7.859-12.131-7.859-19.021c-0.035-6.891,2.62-13.781,7.859-19.021    c5.242-5.239,12.131-7.859,18.987-7.859C396.347,202.578,403.201,205.198,408.478,210.438z M365.445,271.558    c0-4.629-1.758-9.26-5.276-12.812c-3.517-3.518-8.146-5.276-12.776-5.276c-4.629,0-9.26,1.795-12.776,5.312    c-3.554,3.481-5.312,8.11-5.312,12.741c0,4.629,1.795,9.26,5.312,12.776c3.517,3.553,8.147,5.312,12.776,5.312    c4.594,0,9.225-1.759,12.776-5.312C363.688,280.782,365.445,276.151,365.445,271.558z M366.379,252.536    c5.275,5.276,7.895,12.13,7.895,19.021c0,6.856-2.619,13.71-7.859,18.986c-5.274,5.274-12.166,7.895-19.021,7.895    c-6.891,0-13.745-2.62-19.021-7.895c-5.24-5.239-7.859-12.13-7.859-19.021c0-6.856,2.619-13.71,7.859-18.986    c5.24-5.239,12.131-7.895,19.021-7.895C354.248,244.642,361.14,247.297,366.379,252.536z M323.383,313.621    c0-4.594-1.794-9.223-5.313-12.777c-3.516-3.518-8.146-5.275-12.776-5.275c-4.629,0-9.26,1.758-12.776,5.275    c-3.518,3.518-5.276,8.148-5.276,12.777s1.759,9.26,5.276,12.775c3.517,3.52,8.147,5.313,12.776,5.313    c4.63,0,9.261-1.793,12.776-5.313C321.589,322.881,323.383,318.25,323.383,313.621z M367.707,97.96    c-3.518-3.519-8.146-5.276-12.777-5.276c-4.629,0-9.26,1.758-12.777,5.276c-3.516,3.517-5.273,8.147-5.273,12.776    c-0.037,4.594,1.758,9.223,5.273,12.776c3.518,3.519,8.148,5.276,12.777,5.276c4.559,0,9.08-1.686,12.598-5.061l0.18-0.216    c3.518-3.517,5.275-8.147,5.275-12.776S371.225,101.477,367.707,97.96z M373.951,91.715c5.239,5.277,7.859,12.131,7.859,19.021    c0,6.855-2.62,13.745-7.859,18.986l-0.252,0.251c-5.239,5.097-12.023,7.644-18.77,7.644c-6.891,0-13.782-2.619-19.021-7.859    c-5.24-5.24-7.859-12.131-7.859-19.021s2.619-13.744,7.859-19.021c5.239-5.24,12.131-7.859,19.021-7.859    C361.785,83.855,368.676,86.475,373.951,91.715z M325.607,140.059c-3.517-3.517-8.146-5.313-12.776-5.313    c-4.522,0-9.079,1.724-12.561,5.097l-0.216,0.216c-3.517,3.516-5.276,8.146-5.276,12.776c0,4.594,1.76,9.225,5.276,12.741    c3.554,3.553,8.183,5.347,12.776,5.347c4.631-0.035,9.26-1.794,12.776-5.312c3.519-3.552,5.312-8.146,5.312-12.776    c0-4.558-1.722-9.079-5.096-12.598L325.607,140.059z M331.853,133.813l0.216,0.252c5.096,5.241,7.681,11.988,7.681,18.771    c0,6.855-2.657,13.747-7.896,18.986c-5.239,5.274-12.13,7.895-19.021,7.895c-6.891-0.035-13.782-2.655-19.021-7.895    c-5.24-5.239-7.859-12.131-7.859-18.986c0-6.892,2.619-13.782,7.859-19.022l0.288-0.25c5.202-5.096,11.986-7.609,18.733-7.609    C319.723,125.953,326.613,128.574,331.853,133.813z M283.546,182.156c-2.478-2.476-5.455-4.09-8.579-4.845l-0.179-0.034    c-1.041-0.217-2.153-0.36-3.23-0.433c2.979,4.45,5.169,9.476,6.316,14.895l0.107,0.396v0.106l0.072,0.432l0.037,0.106l0.071,0.432    l0.035,0.107l0.072,0.43v0.072l0.071,0.467l0.035,0.072l0.037,0.467l0.035,0.072l0.072,0.467v0.071v0.144l0.036,0.252v0.071    l0.035,0.071v0.107l0.037,0.358v0.071l0.035,0.467l0.035,0.072v0.072l0.037,0.395v0.072v0.072v0.285l0.035,0.145v0.037v0.071    v0.251l0.036,0.18v0.036v0.07v0.253v0.179v0.035v0.036l0.035,0.287v0.215l0,0v0.037v0.286v0.216v0.035l0,0v0.288v0.251l0,0v10.229    l0.181-0.107c1.578-0.789,3.122-1.902,4.485-3.303c3.554-3.516,5.312-8.146,5.312-12.775c0-4.522-1.686-9.045-5.096-12.563    L283.546,182.156z M289.754,175.912l0.251,0.252c5.061,5.203,7.608,11.986,7.608,18.734c0.037,6.891-2.583,13.781-7.824,19.021    c-2.009,2.009-4.306,3.66-6.747,4.881c-1.363,0.718-2.764,1.292-4.199,1.758v21.104v0.107v15.433L400.762,135.32    c1.722-1.721,4.521-1.721,6.243,0c1.724,1.724,1.724,4.522,0,6.211L278.843,269.692v39.047c0.971-5.168,3.446-10.12,7.43-14.104    c5.24-5.275,12.131-7.895,19.021-7.895c6.892,0,13.782,2.619,19.022,7.895c5.239,5.241,7.859,12.13,7.859,18.986    c0,6.891-2.62,13.744-7.859,18.984c-5.24,5.276-12.131,7.896-19.022,7.896c-6.891,0-13.781-2.62-19.021-7.859    c-3.983-3.983-6.459-8.938-7.43-14.105v52.9v0.109v29.752l196.893-196.891c6.854-6.855,10.264-15.899,10.264-24.943    s-3.41-18.088-10.264-24.906L387.77,66.557c-6.855-6.855-15.9-10.3-24.943-10.3c-9.045,0-18.088,3.444-24.944,10.3l-92.165,92.2    c7.106,1.724,13.568,5.239,18.842,10.013c4.021-0.932,8.183-0.969,12.202-0.035l0.18,0.035    C281.644,169.848,286.094,172.251,289.754,175.912z M362.071,107.039c-1.938-1.471-2.332-4.234-0.897-6.172    c1.473-1.938,4.236-2.333,6.174-0.861c0.035,0,10.768,9.367-1.041,19.668c-1.83,1.613-4.594,1.398-6.208-0.395    c-1.579-1.831-1.399-4.631,0.431-6.211C364.656,109.445,362.071,107.039,362.071,107.039z M319.973,149.139    c-1.938-1.472-2.332-4.235-0.861-6.173c1.438-1.938,4.199-2.333,6.139-0.861c0.035,0,10.767,9.331-1.041,19.667    c-1.795,1.58-4.594,1.4-6.21-0.43c-1.579-1.795-1.398-4.594,0.432-6.174C322.593,151.506,319.973,149.139,319.973,149.139z     M312.437,309.924c-1.938-1.436-2.332-4.199-0.862-6.137c1.436-1.939,4.199-2.334,6.139-0.896    c0.035,0.035,10.768,9.367-1.041,19.667c-1.832,1.614-4.594,1.436-6.209-0.395c-1.58-1.831-1.399-4.631,0.432-6.21    C315.021,312.329,312.437,309.924,312.437,309.924z M354.535,267.825c-1.938-1.436-2.332-4.199-0.897-6.136    c1.472-1.939,4.234-2.334,6.173-0.898c0,0.036,10.73,9.368-1.04,19.703c-1.83,1.58-4.631,1.4-6.21-0.43    c-1.614-1.832-1.398-4.594,0.395-6.21C357.119,270.229,354.535,267.825,354.535,267.825z M396.598,225.762    c-1.938-1.471-2.332-4.234-0.861-6.171c1.436-1.938,4.199-2.334,6.138-0.862c0.035,0,10.803,9.367-1.042,19.668    c-1.793,1.579-4.592,1.398-6.172-0.432c-1.615-1.793-1.438-4.594,0.395-6.209C399.217,228.168,396.598,225.762,396.598,225.762z     M438.696,183.664c-1.938-1.436-2.333-4.199-0.862-6.137c1.436-1.939,4.199-2.334,6.139-0.898    c0.035,0.037,10.767,9.369-1.041,19.67c-1.83,1.613-4.594,1.435-6.21-0.396c-1.579-1.83-1.398-4.594,0.432-6.21    C441.315,186.07,438.696,183.664,438.696,183.664z M143.612,284.227c0-2.44,1.974-4.414,4.415-4.414s4.413,1.974,4.413,4.414    v17.981h17.946c2.441,0,4.415,1.974,4.415,4.415c0,2.439-1.974,4.413-4.415,4.413H152.44v17.946c0,2.44-1.972,4.412-4.413,4.412    s-4.415-1.972-4.415-4.412v-17.946h-17.981c-2.441,0-4.415-1.974-4.415-4.413c0-2.441,1.974-4.415,4.415-4.415h17.981V284.227z" style="fill-rule:evenodd;clip-rule:evenodd;"/></g></g><g id="Layer_1"/></svg>